<svg id="Layer_1" data-name="Layer 1" xmlns="http://www.w3.org/2000/svg" viewBox="0 0 651.97 212.6"><defs><style>.cls-1{fill:#231f20;}</style></defs><path class="cls-1" d="M231.81,32.55H216.43c-4.52,0-11.33,5.56-15.16,8.23a6.7,6.7,0,0,0-2.88,5.52V116c0,1.79,1.11,2.69,3.35,2.69s3.35-.9,3.35-2.69V91h26a17.66,17.66,0,0,0,17.67-17.66V50.21C248.81,40.37,241.76,32.55,231.81,32.55Zm10.29,42.7c0,4.92-4.47,9.73-9.39,9.73H205.09V45.72s9.1-7,12.57-7h15.05c4.8,0,9.39,5.15,9.39,10Z"/><path class="cls-1" d="M231.81,118.73H216.43c-4.52,0-11.33,5.57-15.16,8.23a6.72,6.72,0,0,0-2.88,5.52v69.75c0,1.79,1.11,2.68,3.35,2.68s3.35-.89,3.35-2.68v-25h26a17.67,17.67,0,0,0,17.67-17.67V136.39C248.81,126.55,241.76,118.73,231.81,118.73Zm10.29,42.7c0,4.92-4.47,9.73-9.39,9.73H205.09V131.9s9.1-7,12.57-7h15.05c4.8,0,9.39,5.14,9.39,10Z"/><path class="cls-1" d="M291.33,32.64H269c-1.68,0-2.57,1.12-2.57,3.36s.89,3.25,2.57,3.25h21.76c7.29,0,11.44,3.48,11.44,10.77v6.67c-2.71-1.71-6.69-4-8.58-4H274.51a15.09,15.09,0,0,0-14.92,15v8.63c0,8.86,6.17,14.81,16,14.81h28.69a4.49,4.49,0,0,0,4.49-4.5l0-36.66C308.83,40.15,302,32.64,291.33,32.64Zm-4.15,52.59H275c-5,0-8.75-2.8-8.75-8.07V68.08c0-5.28,3.25-9.31,8.75-9.31h7l4.24.1h6.16c2.26,0,6.93,3,9.9,5.09V85.22Z"/><path class="cls-1" d="M291.33,118.82H269c-1.68,0-2.57,1.12-2.57,3.36s.89,3.26,2.57,3.26h21.76c7.29,0,11.44,3.47,11.44,10.76v6.67c-2.71-1.7-6.69-4-8.58-4H274.51a15.09,15.09,0,0,0-14.92,15v8.64c0,8.86,6.17,14.8,16,14.8h28.69a4.49,4.49,0,0,0,4.49-4.49l0-36.67C308.83,126.33,302,118.82,291.33,118.82Zm-4.15,52.6H275c-5,0-8.75-2.81-8.75-8.08v-9.08c0-5.27,3.25-9.31,8.75-9.31h7l4.24.11h6.16c2.26,0,6.93,3,9.9,5.08v21.27Z"/><path class="cls-1" d="M36.48,88.41q0,2.69-3.36,2.69t-3.35-2.69V39.31H15.91c-1.68,0-2.46-1.11-2.46-3.24,0-2.35.78-3.46,2.46-3.46H29.77V23c0-9.83,6-15.65,15.87-15.65h8.28c1.67,0,2.57,1.12,2.57,3.36s-.9,3.35-2.57,3.35H44.75c-5.26,0-8.27,3.35-8.27,8.61v9.93H53.92c1.67,0,2.57,1.11,2.57,3.46,0,2.13-.9,3.24-2.57,3.24H36.48Z"/><path class="cls-1" d="M361.09,84.4c1.79,0,2.69,1.11,2.69,3.46,0,2.12-.9,3.24-2.69,3.24h-14.3c-10.4,0-16.32-5.48-16.32-17V39.31H319.73c-1.67,0-2.46-1.26-2.46-3.38s.79-3.49,2.46-3.49h10.74V14.3c0-1.79,1.22-2.69,3.57-2.69,2.13,0,3.13.9,3.13,2.69V32.44h13.75c1.68,0,2.58,1.36,2.58,3.49s-.9,3.38-2.58,3.38H337.17v35c0,7.27,2.57,10.07,9.73,10.07Z"/><path class="cls-1" d="M411.57,170.58c1.79,0,2.68,1.11,2.68,3.46,0,2.13-.89,3.24-2.68,3.24h-14.3c-10.4,0-16.33-5.47-16.33-17V125.5H370.21c-1.68,0-2.46-1.26-2.46-3.39s.78-3.49,2.46-3.49h10.73V100.48c0-1.79,1.23-2.68,3.58-2.68,2.12,0,3.13.89,3.13,2.68v18.14H401.4c1.68,0,2.57,1.37,2.57,3.49s-.89,3.39-2.57,3.39H387.65v35c0,7.26,2.57,10.06,9.73,10.06Z"/><path class="cls-1" d="M127.48,84.4c1.79,0,2.68,1.11,2.68,3.46,0,2.12-.89,3.24-2.68,3.24H113.17c-10.4,0-16.32-5.48-16.32-17V39.31H86.12c-1.68,0-2.47-1.26-2.47-3.38s.79-3.49,2.47-3.49H96.85V14.3c0-1.79,1.23-2.69,3.58-2.69,2.12,0,3.12.9,3.12,2.69V32.44h13.76c1.67,0,2.57,1.36,2.57,3.49s-.9,3.38-2.57,3.38H103.55v35c0,7.27,2.58,10.07,9.73,10.07Z"/><path class="cls-1" d="M184.17,84.79c1.7,0,2.6,1,2.6,3.1s-.9,3.21-2.6,3.21H141.56a3.23,3.23,0,0,1-3.51-3.33c0-2.29.79-3.56,2.72-5.74L176.8,39H141c-1.7,0-2.49-1-2.49-3.1s.79-3.33,2.49-3.33h41.14c2.38,0,3.4,1.5,3.4,2.76,0,2.64-.8,4.36-3.06,7.12L147,84.79Z"/><path class="cls-1" d="M481.55,84.06c1.68,0,2.57,1.11,2.57,3.35s-.89,3.35-2.57,3.35H457.29c-10.73,0-18.11-7.26-18.11-18.11V51.3c0-10.73,7.38-18.67,18-18.67h14.08c10.73,0,16.88,6.26,16.88,16.1v1.34c0,1.68-1.23,2.68-3.35,2.68s-3.35-1-3.35-2.68V48.28c0-5.7-3.47-8.94-9.62-8.94h-15.2c-6.82.11-10.73,4.92-10.73,10.84V73.77c0,5.7,4,10.29,10.73,10.29Z"/><path class="cls-1" d="M545,86.18a3.37,3.37,0,0,1,1,2.23c0,1.46-1,2.69-3.36,2.69-1.79,0-2.68-.9-3.91-2.69L519.28,61.47l-14,13.31V88.41c0,1.79-1.11,2.69-3.35,2.69s-3.36-.9-3.36-2.69V14.3q0-2.69,3.36-2.69c2.24,0,3.35.9,3.35,2.69V65.61l32.09-30.74a5.61,5.61,0,0,1,3.46-1.68,3.22,3.22,0,0,1,2.8,3c0,1.23-.11,1.67-1.45,3L523.86,56.67Z"/><path class="cls-1" d="M70.3,32.47c-2.12,0-3.36,1-3.36,2.68V88.58q0,2.69,3.36,2.68c2.24,0,3.35-.89,3.35-2.68V35.15C73.65,33.47,72.54,32.47,70.3,32.47Z"/><path class="cls-1" d="M70.3,14.13c-2.12,0-3.36,1-3.36,2.68v4.25q0,2.69,3.36,2.68c2.24,0,3.35-.89,3.35-2.68V16.81C73.65,15.13,72.54,14.13,70.3,14.13Z"/><path class="cls-1" d="M425.19,32.47c-2.13,0-3.36,1-3.36,2.68V88.58q0,2.69,3.36,2.68c2.24,0,3.35-.89,3.35-2.68V35.15C428.54,33.47,427.43,32.47,425.19,32.47Z"/><path class="cls-1" d="M425.19,14.13c-2.13,0-3.36,1-3.36,2.68v4.25q0,2.69,3.36,2.68c2.24,0,3.35-.89,3.35-2.68V16.81C428.54,15.13,427.43,14.13,425.19,14.13Z"/><path class="cls-1" d="M410.45,32.51H393.54l-.73,0-.5.06c-4.53.4-11,5.66-14.7,8.24a6.71,6.71,0,0,0-2.88,5.2,1.38,1.38,0,0,0-.06.46V88.54q0,2.7,3.38,2.7a6.12,6.12,0,0,0,1.43-.16l.25-.08.26-.1a2.55,2.55,0,0,0,.33-.17l.09,0a2.3,2.3,0,0,0,1-1.91v-.06a1,1,0,0,0,0-.18V45.79c.63-.42,9.74-6.63,12.6-6.65h16.4c1.69,0,2.59-1.12,2.59-3.26S412.14,32.51,410.45,32.51Z"/><path class="cls-1" d="M355.46,118.69H338.55l-.73,0-.5.06c-4.54.4-11,5.66-14.71,8.24a6.76,6.76,0,0,0-2.88,5.2,1.78,1.78,0,0,0-.05.46v42.1c0,1.79,1.13,2.69,3.37,2.69a6,6,0,0,0,1.43-.16l.25-.08.26-.09.34-.17.08-.06a2.3,2.3,0,0,0,1-1.91v0c0-.06,0-.12,0-.18V132c.62-.42,9.74-6.63,12.6-6.64h16.4c1.69,0,2.59-1.12,2.59-3.26S357.15,118.69,355.46,118.69Z"/><path class="cls-1" d="M577.69,118.69H560.77l-.72,0-.51.06c-4.53.4-11,5.66-14.7,8.24a6.76,6.76,0,0,0-2.88,5.2,1.78,1.78,0,0,0-.05.46v42.1q0,2.69,3.37,2.69a6,6,0,0,0,1.43-.16l.25-.08.26-.09a3.59,3.59,0,0,0,.34-.17l.08-.06a2.3,2.3,0,0,0,1-1.91v0c0-.06,0-.12,0-.18v-.08a.22.22,0,0,0,0-.08V132c.62-.42,9.74-6.63,12.6-6.64h16.4c1.69,0,2.58-1.12,2.58-3.26S579.38,118.69,577.69,118.69Z"/><path class="cls-1" d="M456.12,118.94h-12.7a10.11,10.11,0,0,0-3.22.39h0l-.37.13c-3.55,1.27-9.28,5.23-9.6,5.45l0,.07c-1.4.79-2.69,1.6-3.74,2.33a6.73,6.73,0,0,0-2.87,5.17,1.78,1.78,0,0,0-.05.46v3a1,1,0,0,0,0,.23v38.59q0,2.69,3.36,2.69h0a5.47,5.47,0,0,0,1.42-.17l.25-.07.26-.1a2.55,2.55,0,0,0,.33-.17l.08-.05a2.26,2.26,0,0,0,1-1.9.07.07,0,0,1,0,0c0-.07,0-.12,0-.18v-.08s0,0,0-.08V132.3l.25-.2c1.63-1.17,9.72-6.91,12.95-6.91H457c4.8,0,9.39,5.14,9.39,10v39.57q0,2.68,3.35,2.69t3.36-2.69V136.83C473.12,126.88,466,118.94,456.12,118.94Z"/><path class="cls-1" d="M524.66,170.8c1.68,0,2.69,1.12,2.69,3.25s-.89,3.25-2.69,3.25H500.24c-10.43,0-17.71-7.29-17.71-17.6v-23c0-10,7.4-17.93,17-17.93H515c9.41,0,17.14,8,17.14,17.93v6.72c0,3.48-3.92,7.51-7.51,7.51H489.25v10.31c0,5.83,5.27,9.53,10.09,9.53Zm-2.46-25.89a3.43,3.43,0,0,0,3.25-3.47v-5.83c0-4.93-4.6-10.09-9.42-10.09H499.11c-5,0-9.86,4.82-9.86,10.09v9.3Z"/><path class="cls-1" d="M622.64,170.76c5.41,0,9.12-4.17,9.12-9.57,0-5.75-3.71-9.13-9.23-9.46l-16.9-.68c-9.8-.34-16.67-7-16.67-16.1,0-8.23,6.31-16.22,15.77-16.22h27.6c1.69,0,2.59,1.12,2.59,3.38,0,2.58-1.13,3.6-2.59,3.6l-27.82-.23c-5,0-8.79,4.62-8.79,9.69,0,5.74,5.18,9.12,9.91,9.12l17.12.57a16.21,16.21,0,0,1,15.77,16c0,8.45-6.42,16.56-16,16.56H593.58c-1.69,0-2.59-1.13-2.59-3.38s.9-3.27,2.59-3.27Z"/><path class="cls-1" d="M123.49,150.64H74.86a2.57,2.57,0,0,0-2.57,2.57v1.65a2.57,2.57,0,0,0,2.57,2.57h46.56a2.08,2.08,0,0,1,2.07,2.08v43.16a2.58,2.58,0,0,0,2.57,2.57h1.65a2.58,2.58,0,0,0,2.57-2.57v-45.4a6.63,6.63,0,0,0-6.62-6.63Z"/><path class="cls-1" d="M130.28,141.78V98.62a2.57,2.57,0,0,0-2.57-2.57h-1.65a2.57,2.57,0,0,0-2.57,2.57V144a6.62,6.62,0,0,0,6.62,6.62h48.8a2.57,2.57,0,0,0,2.57-2.57v-1.64a2.57,2.57,0,0,0-2.57-2.57H132.35A2.08,2.08,0,0,1,130.28,141.78Z"/></svg>