<?xml version="1.0" encoding="utf-8"?>
<!-- Generator: Adobe Illustrator 26.1.0, SVG Export Plug-In . SVG Version: 6.00 Build 0)  -->
<svg version="1.1" id="Layer_1" xmlns="http://www.w3.org/2000/svg" xmlns:xlink="http://www.w3.org/1999/xlink" x="0px" y="0px"
	 viewBox="0 0 160 160" style="enable-background:new 0 0 160 160;" xml:space="preserve">
<style type="text/css">
	.st0{fill:#79B159;}
	.st1{fill:#FFFFFF;}
</style>
<circle class="st0" cx="80" cy="80" r="80"/>
<path class="st1" d="M27.5,45l0.3,6.1c-1.8,2.7-2.7,5.9-2.4,9.2l4.5,49c0.7,7.2,6.7,12.7,13.9,12.7H87v-7H43.8c-3.6,0-6.6-2.8-7-6.4
	l-4.5-49c-0.3-3.9,2.5-7.3,6.3-7.6c0.2,0,0.4,0,0.6,0h81.3c3.9,0,7,3.1,7,7c0,0.2,0,0.4,0,0.6L125.8,80h7l1.8-19.7
	c0.7-7.7-5-14.5-12.7-15.2c-0.4,0-0.8-0.1-1.3-0.1H92.8c-3.7,0-7.3-1.5-9.9-4.1l-5.8-5.8c-2.6-2.6-6.2-4.1-9.9-4.1H41.5
	C33.8,31,27.5,37.3,27.5,45z M67.2,38c1.9,0,3.6,0.7,4.9,2.1l4.9,4.9H39.3c-1.7,0-3.3,0.3-4.8,0.8l0-1c0.1-3.8,3.2-6.9,7-6.9H67.2z"
	/>
<path class="st1" d="M135,95c1.4,1.4,1.4,3.6,0,4.9c0,0,0,0,0,0l-21,21c-1.4,1.4-3.6,1.4-4.9,0l-10.5-10.5c-1.4-1.4-1.4-3.6,0-5
	c1.4-1.4,3.6-1.4,5,0l0,0l8,8L130,95C131.4,93.7,133.6,93.7,135,95C135,95,135,95,135,95z"/>
</svg>
