<svg id="Layer_1" data-name="Layer 1" xmlns="http://www.w3.org/2000/svg" viewBox="0 0 36 36"><defs><style>.cls-1{fill:#fff;}.cls-2{fill:#231f20;}</style></defs><rect class="cls-1" width="36" height="36" rx="18"/><path class="cls-2" d="M26.12,20.9h-2c-.58,0-1.45.72-1.95,1.06a.89.89,0,0,0-.37.71v9c0,.24.14.35.43.35s.43-.11.43-.35V28.43H26a2.27,2.27,0,0,0,2.27-2.27v-3A2.18,2.18,0,0,0,26.12,20.9Zm1.33,5.5a1.29,1.29,0,0,1-1.21,1.25H22.68v-5s1.18-.9,1.62-.9h1.94A1.34,1.34,0,0,1,27.45,23Z"/><path class="cls-2" d="M11.94,14.44c0,.23-.15.34-.44.34s-.43-.11-.43-.34V8.11H9.29C9.07,8.11,9,8,9,7.7s.1-.45.32-.45h1.78V6a1.87,1.87,0,0,1,2-2h1.06c.22,0,.33.14.33.43s-.11.43-.33.43H13A1,1,0,0,0,11.94,6V7.25h2.24c.22,0,.33.14.33.45s-.11.41-.33.41H11.94Z"/><path class="cls-2" d="M17.56,17.66H9.66a.33.33,0,0,0-.33.33v.21a.33.33,0,0,0,.33.33H17.3a.27.27,0,0,1,.26.27V26a.33.33,0,0,0,.33.33h.22a.33.33,0,0,0,.33-.33V18.51a.85.85,0,0,0-.86-.85Z"/><path class="cls-2" d="M18.44,16.52V9.32A.33.33,0,0,0,18.11,9h-.22a.33.33,0,0,0-.33.33v7.49a.85.85,0,0,0,.86.85h7.92a.33.33,0,0,0,.33-.33v-.21a.34.34,0,0,0-.33-.34H18.7A.26.26,0,0,1,18.44,16.52Z"/></svg>